<svg width="459" height="172" viewBox="0 0 459 172" fill="none" xmlns="http://www.w3.org/2000/svg">
<path d="M456.73 167.033H392.639V166.481L438.838 99.6981H424.017C420.189 99.6981 417.029 99.8821 414.537 100.25C412.133 100.526 410.13 101.17 408.528 102.182C407.015 103.102 405.858 104.435 405.057 106.183C404.255 107.839 403.632 110.093 403.187 112.944H398.914L401.051 93.9029H458.466V94.4548L412.934 160.686H428.557C433.096 160.686 436.835 160.502 439.773 160.134C442.799 159.766 445.247 159.03 447.116 157.926C449.075 156.822 450.588 155.304 451.656 153.373C452.813 151.441 453.793 148.865 454.594 145.646H459L456.73 167.033Z" fill="#4F7960"/>
<path d="M347.049 92.5231C352.123 92.5231 356.93 93.4889 361.47 95.4207C366.009 97.2604 369.971 99.8361 373.353 103.148C376.825 106.459 379.54 110.415 381.498 115.014C383.545 119.521 384.569 124.489 384.569 129.916C384.569 135.527 383.545 140.678 381.498 145.37C379.54 150.061 376.825 154.108 373.353 157.512C369.971 160.916 366.009 163.583 361.47 165.515C356.93 167.447 352.123 168.412 347.049 168.412C342.064 168.412 337.302 167.493 332.762 165.653C328.311 163.721 324.395 161.054 321.012 157.65C317.629 154.246 314.959 150.199 313.001 145.508C311.042 140.724 310.063 135.527 310.063 129.916C310.063 124.489 311.042 119.475 313.001 114.876C314.959 110.277 317.629 106.321 321.012 103.01C324.395 99.6981 328.311 97.1224 332.762 95.2827C337.302 93.4429 342.064 92.5231 347.049 92.5231ZM347.049 99.1462C343.755 99.1462 340.729 99.882 337.969 101.354C335.299 102.826 332.985 104.941 331.026 107.701C329.157 110.369 327.688 113.634 326.62 117.498C325.641 121.269 325.151 125.454 325.151 130.054C325.151 134.837 325.641 139.161 326.62 143.024C327.688 146.888 329.157 150.199 331.026 152.959C332.985 155.626 335.299 157.696 337.969 159.168C340.64 160.64 343.666 161.375 347.049 161.375C350.432 161.375 353.503 160.64 356.262 159.168C359.022 157.696 361.381 155.58 363.339 152.821C365.297 150.061 366.811 146.75 367.879 142.886C368.947 139.023 369.481 134.745 369.481 130.054C369.481 125.454 368.947 121.269 367.879 117.498C366.811 113.726 365.297 110.507 363.339 107.839C361.381 105.079 359.022 102.964 356.262 101.492C353.503 99.928 350.432 99.1462 347.049 99.1462Z" fill="#4F7960"/>
<path d="M259.685 92.5231C264.759 92.5231 269.566 93.4889 274.106 95.4207C278.645 97.2604 282.607 99.8361 285.989 103.148C289.461 106.459 292.176 110.415 294.134 115.014C296.182 119.521 297.205 124.489 297.205 129.916C297.205 135.527 296.182 140.678 294.134 145.37C292.176 150.061 289.461 154.108 285.989 157.512C282.607 160.916 278.645 163.583 274.106 165.515C269.566 167.447 264.759 168.412 259.685 168.412C254.7 168.412 249.938 167.493 245.398 165.653C240.947 163.721 237.031 161.054 233.648 157.65C230.265 154.246 227.595 150.199 225.637 145.508C223.678 140.724 222.699 135.527 222.699 129.916C222.699 124.489 223.678 119.475 225.637 114.876C227.595 110.277 230.265 106.321 233.648 103.01C237.031 99.6981 240.947 97.1224 245.398 95.2827C249.938 93.4429 254.7 92.5231 259.685 92.5231ZM259.685 99.1462C256.392 99.1462 253.365 99.882 250.606 101.354C247.935 102.826 245.621 104.941 243.662 107.701C241.793 110.369 240.324 113.634 239.256 117.498C238.277 121.269 237.787 125.454 237.787 130.054C237.787 134.837 238.277 139.161 239.256 143.024C240.324 146.888 241.793 150.199 243.662 152.959C245.621 155.626 247.935 157.696 250.606 159.168C253.276 160.64 256.303 161.375 259.685 161.375C263.068 161.375 266.139 160.64 268.898 159.168C271.658 157.696 274.017 155.58 275.975 152.821C277.933 150.061 279.447 146.75 280.515 142.886C281.583 139.023 282.117 134.745 282.117 130.054C282.117 125.454 281.583 121.269 280.515 117.498C279.447 113.726 277.933 110.507 275.975 107.839C274.017 105.079 271.658 102.964 268.898 101.492C266.139 99.928 263.068 99.1462 259.685 99.1462Z" fill="#4F7960"/>
<path d="M180.314 136.497L213.603 40.7949C215.594 35.0615 217.017 30.5043 217.87 27.1231C218.724 23.7419 219.151 20.8017 219.151 18.3026C219.151 14.4803 217.941 11.9077 215.523 10.5846C213.247 9.11452 209.121 8.37948 203.146 8.37948V0H255V8.37948C248.456 8.37948 243.477 9.77606 240.063 12.5692C236.791 15.3624 234.017 19.9197 231.741 26.241L178.18 172H170.711L129.741 46.5282L84.2887 172H76.8201L32.4351 45.4256C29.8745 38.3692 27.5272 32.4889 25.3933 27.7846C23.4017 22.9333 21.1967 19.1111 18.7782 16.3179C16.5021 13.5248 13.8703 11.5402 10.8828 10.3641C7.8954 9.18804 4.26778 8.60001 0 8.60001V0H69.5649V8.60001C62.3096 8.60001 57.1883 9.26154 54.2008 10.5846C51.3557 11.9077 49.9331 14.4803 49.9331 18.3026C49.9331 20.2137 50.2176 22.4188 50.7866 24.918C51.3557 27.4171 52.2092 30.3573 53.3473 33.7385L85.7824 135.836L112.029 59.5385C114.021 53.8051 115.941 48.5128 117.791 43.6615C119.782 38.6633 121.347 34.1795 122.485 30.2103C120.494 25.947 118.644 22.4188 116.937 19.6256C115.372 16.8325 113.736 14.6274 112.029 13.0103C110.464 11.3932 108.757 10.2906 106.908 9.70257C105.201 8.96753 103.351 8.60001 101.36 8.60001V0H166.657V8.60001C162.531 8.60001 159.188 8.74701 156.628 9.04102C154.067 9.33504 152.075 9.84957 150.653 10.5846C149.372 11.1726 148.448 12.0547 147.879 13.2308C147.452 14.4068 147.238 15.8034 147.238 17.4205C147.238 19.6256 147.594 22.3453 148.305 25.5795C149.159 28.6667 150.297 32.6359 151.72 37.4872L180.314 136.497Z" fill="#4F7960"/>
<path d="M434.894 66.7207C433.986 66.7207 433.131 66.5413 432.33 66.1825C431.556 65.7962 430.875 65.2443 430.287 64.5268C429.7 63.8093 429.232 62.94 428.885 61.9189C428.538 60.8703 428.364 59.6974 428.364 58.4004C428.364 56.6067 428.685 54.8405 429.326 53.102C429.993 51.3634 430.861 49.818 431.929 48.4658C432.998 47.1136 434.213 46.0235 435.575 45.1957C436.963 44.3678 438.392 43.9538 439.861 43.9538C440.822 43.9538 441.703 44.147 442.504 44.5333C443.332 44.8921 444.027 45.4302 444.587 46.1477C445.175 46.8376 445.629 47.6793 445.949 48.6728C446.297 49.6386 446.47 50.7149 446.47 51.9015C446.47 53.6401 446.136 55.3924 445.469 57.1586C444.801 58.9247 443.92 60.5115 442.825 61.9189C441.757 63.3263 440.528 64.4854 439.14 65.396C437.751 66.2791 436.336 66.7207 434.894 66.7207ZM435.134 64.6509C436.042 64.6509 436.937 64.168 437.818 63.2021C438.726 62.2363 439.527 61.0221 440.221 59.5595C440.942 58.0693 441.516 56.4549 441.944 54.7163C442.398 52.9778 442.625 51.322 442.625 49.749C442.625 48.2864 442.371 47.2792 441.864 46.7272C441.383 46.1753 440.715 45.8994 439.861 45.8994C439.273 45.8994 438.672 46.1201 438.058 46.5617C437.471 46.9756 436.91 47.5551 436.376 48.3002C435.842 49.0453 435.334 49.9008 434.854 50.8667C434.4 51.8325 433.999 52.8536 433.652 53.9298C433.305 55.0061 433.038 56.1099 432.851 57.2414C432.664 58.3452 432.57 59.4077 432.57 60.4287C432.57 61.9741 432.811 63.0642 433.291 63.6989C433.772 64.3336 434.386 64.6509 435.134 64.6509Z" fill="#4F7960"/>
<path d="M422.186 47.8035L418.861 59.1869C418.407 60.6771 418.167 61.8085 418.14 62.5812C418.14 62.8296 418.194 63.0504 418.301 63.2435C418.434 63.4367 418.648 63.5333 418.942 63.5333C419.422 63.5333 419.93 63.3539 420.464 62.9952C420.998 62.6088 421.505 62.1673 421.986 61.6705C422.493 61.1462 422.934 60.6219 423.308 60.0976C423.708 59.5456 424.002 59.1179 424.189 58.8143L425.351 59.518C424.897 60.4563 424.323 61.367 423.628 62.2501C422.934 63.1055 422.2 63.8644 421.425 64.5268C420.651 65.1891 419.863 65.7272 419.062 66.1411C418.287 66.5275 417.58 66.7206 416.939 66.7206C416.004 66.7206 415.323 66.5137 414.896 66.0997C414.495 65.6858 414.295 64.9959 414.295 64.03C414.295 63.4781 414.388 62.733 414.575 61.7947C414.762 60.8565 415.083 59.5732 415.537 57.9451L418.501 47.8035H415.056L415.577 45.8993H419.062L421.145 38.7795H424.83L422.747 45.8993H427.113L426.552 47.8035H422.186Z" fill="#4F7960"/>
<path d="M398.334 60.8013C396.011 64.7475 393.154 66.7207 389.762 66.7207C387.92 66.7207 386.504 66.1411 385.516 64.9821C384.528 63.7955 384.034 62.1259 384.034 59.9734C384.034 58.0693 384.408 56.1651 385.156 54.261C385.93 52.3569 386.932 50.6459 388.16 49.1281C389.388 47.5827 390.764 46.3409 392.286 45.4026C393.808 44.4368 395.33 43.9538 396.852 43.9538C398.134 43.9538 399.176 44.2988 399.977 44.9887C400.805 45.651 401.219 46.5065 401.219 47.5551C401.219 48.521 400.871 49.5145 400.177 50.5355C399.483 51.5566 398.535 52.5224 397.333 53.4331C396.158 54.3438 394.769 55.1717 393.167 55.9168C391.591 56.6619 389.909 57.2414 388.12 57.6553C388.066 58.0417 388.026 58.428 388 58.8144C387.973 59.1731 387.96 59.5457 387.96 59.932C387.96 62.94 388.988 64.444 391.044 64.444C392.032 64.444 393.047 64.0438 394.088 63.2435C395.157 62.4433 396.145 61.3394 397.053 59.932L398.334 60.8013ZM396.051 45.8994C395.357 45.8994 394.636 46.1753 393.888 46.7272C393.14 47.2792 392.419 48.0243 391.725 48.9625C391.057 49.8732 390.443 50.9219 389.882 52.1085C389.322 53.2951 388.868 54.5232 388.52 55.7926C389.802 55.4338 390.991 54.9647 392.085 54.3852C393.18 53.8057 394.115 53.1571 394.889 52.4396C395.691 51.6945 396.318 50.9219 396.772 50.1216C397.226 49.2937 397.453 48.4658 397.453 47.6379C397.453 46.4789 396.986 45.8994 396.051 45.8994Z" fill="#4F7960"/>
<path d="M375.177 52.5224C375.524 51.5014 375.791 50.6873 375.978 50.0802C376.192 49.4731 376.352 49.0039 376.459 48.6728C376.565 48.314 376.632 48.0381 376.659 47.8449C376.686 47.6517 376.699 47.4723 376.699 47.3068C376.699 46.5065 376.432 46.1063 375.898 46.1063C375.177 46.1063 374.322 46.6169 373.334 47.6379C372.346 48.6314 371.278 50.0802 370.13 51.9843C369.729 52.6466 369.355 53.3227 369.008 54.0126C368.661 54.6749 368.287 55.5166 367.886 56.5377C367.486 57.5311 367.018 58.8006 366.484 60.3459C365.95 61.8913 365.269 63.8783 364.441 66.3067H360.676L363.32 57.9865C363.881 56.2203 364.348 54.7439 364.722 53.5573C365.096 52.3431 365.39 51.3358 365.603 50.5355C365.817 49.7352 365.964 49.1005 366.044 48.6314C366.151 48.1622 366.204 47.7759 366.204 47.4723C366.204 46.5617 365.87 46.1063 365.203 46.1063C364.668 46.1063 364.028 46.4237 363.28 47.0584C362.532 47.6931 361.771 48.521 360.997 49.542C360.222 50.5631 359.474 51.7221 358.753 53.0192C358.059 54.2886 357.472 55.5856 356.991 56.9102L353.626 66.3067H350.101L353.065 56.8274C353.573 55.2269 353.987 53.8884 354.307 52.8122C354.628 51.7083 354.881 50.8115 355.068 50.1216C355.255 49.4041 355.389 48.8383 355.469 48.4244C355.549 48.0105 355.589 47.6655 355.589 47.3895C355.589 46.6169 355.362 46.2305 354.908 46.2305C354.614 46.2305 354.267 46.4099 353.866 46.7686C353.493 47.1274 353.105 47.6241 352.705 48.2588C352.304 48.8659 351.904 49.5696 351.503 50.3699C351.129 51.1702 350.795 52.0119 350.502 52.895L349.3 52.2741C350.235 49.4317 351.276 47.3344 352.424 45.9821C353.599 44.6299 354.935 43.9538 356.43 43.9538C357.285 43.9538 357.886 44.2022 358.233 44.6989C358.607 45.1957 358.793 46.0235 358.793 47.1826C358.793 48.5072 358.566 49.7766 358.112 50.9908L358.233 51.115C360.716 46.3409 363.347 43.9538 366.124 43.9538C367.165 43.9538 367.98 44.285 368.567 44.9473C369.155 45.582 369.449 46.4789 369.449 47.6379C369.449 48.0243 369.395 48.4658 369.288 48.9625C369.208 49.4593 369.035 50.1906 368.768 51.1564L368.848 51.2806C369.596 49.956 370.303 48.8383 370.971 47.9277C371.665 46.9894 372.333 46.2305 372.974 45.651C373.615 45.0715 374.255 44.6437 374.896 44.3678C375.564 44.0918 376.245 43.9538 376.939 43.9538C377.981 43.9538 378.755 44.2436 379.263 44.8231C379.797 45.4026 380.064 46.3133 380.064 47.5551C380.064 47.9415 380.024 48.3692 379.944 48.8383C379.863 49.2799 379.743 49.818 379.583 50.4527C379.423 51.0598 379.209 51.7773 378.942 52.6052C378.702 53.4055 378.408 54.3576 378.061 55.4614C377.607 56.8688 377.246 58.0003 376.979 58.8558C376.712 59.6836 376.512 60.3459 376.378 60.8427C376.245 61.3394 376.152 61.712 376.098 61.9603C376.071 62.2087 376.058 62.457 376.058 62.7054C376.058 63.2297 376.192 63.4919 376.459 63.4919C376.859 63.4919 377.46 63.1056 378.261 62.3329C379.062 61.5326 380.104 60.3046 381.386 58.6488L382.427 59.2283C381.973 60.139 381.386 61.0496 380.665 61.9603C379.97 62.8434 379.236 63.6437 378.461 64.3612C377.687 65.0511 376.913 65.6168 376.138 66.0583C375.39 66.4999 374.736 66.7207 374.175 66.7207C373.508 66.7207 372.974 66.4309 372.573 65.8514C372.199 65.2443 372.012 64.444 372.012 63.4505C372.012 63.1194 372.039 62.7468 372.092 62.3329C372.173 61.9189 372.319 61.3256 372.533 60.5529C372.773 59.7802 373.094 58.7592 373.494 57.4897C373.922 56.2203 374.482 54.5645 375.177 52.5224Z" fill="#4F7960"/>
<path d="M335.142 66.7207C334.234 66.7207 333.38 66.5413 332.579 66.1825C331.804 65.7962 331.123 65.2443 330.536 64.5268C329.948 63.8093 329.481 62.94 329.134 61.9189C328.787 60.8703 328.613 59.6974 328.613 58.4004C328.613 56.6067 328.933 54.8405 329.574 53.102C330.242 51.3634 331.11 49.818 332.178 48.4658C333.246 47.1136 334.461 46.0235 335.823 45.1957C337.212 44.3678 338.641 43.9538 340.109 43.9538C341.071 43.9538 341.952 44.147 342.753 44.5333C343.581 44.8921 344.275 45.4302 344.836 46.1477C345.424 46.8376 345.878 47.6793 346.198 48.6728C346.545 49.6386 346.719 50.7149 346.719 51.9015C346.719 53.6401 346.385 55.3924 345.717 57.1586C345.05 58.9247 344.168 60.5115 343.074 61.9189C342.005 63.3263 340.777 64.4854 339.388 65.396C338 66.2791 336.584 66.7207 335.142 66.7207ZM335.383 64.6509C336.291 64.6509 337.185 64.168 338.066 63.2021C338.974 62.2363 339.776 61.0221 340.47 59.5595C341.191 58.0693 341.765 56.4549 342.192 54.7163C342.646 52.9778 342.873 51.322 342.873 49.749C342.873 48.2864 342.62 47.2792 342.112 46.7272C341.632 46.1753 340.964 45.8994 340.109 45.8994C339.522 45.8994 338.921 46.1201 338.307 46.5617C337.719 46.9756 337.159 47.5551 336.624 48.3002C336.09 49.0453 335.583 49.9008 335.102 50.8667C334.648 51.8325 334.248 52.8536 333.901 53.9298C333.553 55.0061 333.286 56.1099 333.099 57.2414C332.912 58.3452 332.819 59.4077 332.819 60.4287C332.819 61.9741 333.059 63.0642 333.54 63.6989C334.021 64.3336 334.635 64.6509 335.383 64.6509Z" fill="#4F7960"/>
<path d="M324.911 59.6422C323.79 61.9327 322.481 63.6851 320.986 64.8993C319.517 66.1135 317.942 66.7207 316.259 66.7207C314.523 66.7207 313.135 66.1135 312.093 64.8993C311.052 63.6575 310.531 62.0155 310.531 59.9734C310.531 58.7592 310.705 57.5173 311.052 56.2479C311.399 54.9785 311.866 53.7505 312.454 52.5638C313.041 51.3772 313.736 50.2595 314.537 49.2109C315.338 48.1622 316.192 47.2516 317.1 46.4789C318.008 45.7062 318.943 45.0991 319.904 44.6575C320.892 44.1884 321.854 43.9538 322.788 43.9538C324.07 43.9538 325.125 44.3126 325.953 45.0301C326.781 45.7476 327.195 46.6445 327.195 47.7207C327.195 48.4106 326.994 48.9763 326.594 49.4179C326.22 49.8318 325.726 50.0388 325.112 50.0388C324.498 50.0388 323.99 49.8456 323.59 49.4593C323.216 49.0453 323.029 48.5486 323.029 47.9691C323.029 47.6103 323.082 47.3206 323.189 47.0998C323.296 46.879 323.349 46.672 323.349 46.4789C323.349 46.0925 323.029 45.8994 322.388 45.8994C321.507 45.8994 320.612 46.3271 319.704 47.1826C318.796 48.0381 317.968 49.1419 317.221 50.4941C316.5 51.8463 315.899 53.3641 315.418 55.0475C314.964 56.7033 314.737 58.359 314.737 60.0148C314.737 61.3394 314.977 62.3881 315.458 63.1607C315.965 63.9058 316.66 64.2784 317.541 64.2784C318.022 64.2784 318.516 64.1404 319.023 63.8645C319.557 63.5885 320.091 63.2159 320.625 62.7468C321.159 62.2501 321.667 61.6706 322.148 61.0083C322.655 60.3459 323.109 59.6146 323.509 58.8144L324.911 59.6422Z" fill="#4F7960"/>
<path d="M304.744 37.7033C304.877 37.2066 305.011 36.7098 305.144 36.2131C305.278 35.6888 305.345 35.3024 305.345 35.0541C305.345 34.0882 304.33 33.6053 302.3 33.6053L302.621 32.3635L309.951 31.9909L302.781 59.1869C302.567 59.932 302.407 60.5943 302.3 61.1738C302.193 61.7258 302.14 62.1949 302.14 62.5812C302.14 62.8296 302.207 63.0504 302.34 63.2436C302.474 63.4367 302.687 63.5333 302.981 63.5333C303.409 63.5333 303.862 63.3539 304.343 62.9952C304.824 62.6088 305.278 62.1673 305.705 61.6706C306.159 61.1462 306.56 60.6219 306.907 60.0976C307.254 59.5457 307.508 59.1179 307.668 58.8144L308.87 59.5181C308.469 60.4563 307.948 61.367 307.307 62.2501C306.666 63.1056 305.986 63.8645 305.264 64.5268C304.543 65.1891 303.809 65.7272 303.061 66.1411C302.34 66.5275 301.673 66.7207 301.058 66.7207C300.124 66.7207 299.43 66.5137 298.976 66.0998C298.548 65.6858 298.335 64.9959 298.335 64.03C298.335 63.4781 298.415 62.733 298.575 61.7948C298.735 60.8565 299.016 59.5733 299.416 57.9451L304.744 37.7033Z" fill="#4F7960"/>
<path d="M294.006 60.8013C291.683 64.7475 288.826 66.7207 285.434 66.7207C283.591 66.7207 282.176 66.1411 281.188 64.9821C280.2 63.7955 279.706 62.1259 279.706 59.9734C279.706 58.0693 280.08 56.1651 280.827 54.261C281.602 52.3569 282.603 50.6459 283.832 49.1281C285.06 47.5827 286.435 46.3409 287.958 45.4026C289.48 44.4368 291.002 43.9538 292.524 43.9538C293.806 43.9538 294.847 44.2988 295.649 44.9887C296.476 45.651 296.89 46.5065 296.89 47.5551C296.89 48.521 296.543 49.5145 295.849 50.5355C295.155 51.5566 294.207 52.5224 293.005 53.4331C291.83 54.3438 290.441 55.1717 288.839 55.9168C287.263 56.6619 285.581 57.2414 283.792 57.6553C283.738 58.0417 283.698 58.428 283.672 58.8144C283.645 59.1731 283.631 59.5457 283.631 59.932C283.631 62.94 284.66 64.444 286.716 64.444C287.704 64.444 288.719 64.0438 289.76 63.2435C290.828 62.4433 291.816 61.3394 292.724 59.932L294.006 60.8013ZM291.723 45.8994C291.029 45.8994 290.308 46.1753 289.56 46.7272C288.812 47.2792 288.091 48.0243 287.397 48.9625C286.729 49.8732 286.115 50.9219 285.554 52.1085C284.993 53.2951 284.539 54.5232 284.192 55.7926C285.474 55.4338 286.662 54.9647 287.757 54.3852C288.852 53.8057 289.787 53.1571 290.561 52.4396C291.362 51.6945 291.99 50.9219 292.444 50.1216C292.898 49.2937 293.125 48.4658 293.125 47.6379C293.125 46.4789 292.658 45.8994 291.723 45.8994Z" fill="#4F7960"/>
<path d="M277.717 43.7055C279.16 41.8014 280.228 40.3388 280.922 39.3177C281.616 38.2691 281.964 37.5102 281.964 37.041C281.964 36.6547 281.75 36.4063 281.323 36.2959C280.922 36.158 280.294 36.089 279.44 36.089L279.84 34.4332H290.215L289.815 36.089C289.174 36.089 288.52 36.2131 287.852 36.4615C287.211 36.6823 286.503 37.0962 285.729 37.7033C284.981 38.2829 284.14 39.0831 283.205 40.1042C282.271 41.1253 281.229 42.4223 280.081 43.9953L263.217 66.7207H259.852L264.178 46.9757L249.517 66.7207H246.153L251.72 41.3046C252.041 39.8696 252.201 38.8072 252.201 38.1173C252.201 37.317 251.947 36.7789 251.44 36.5029C250.933 36.2269 249.945 36.089 248.476 36.089L248.876 34.4332H259.932L259.532 36.089C258.971 36.089 258.49 36.158 258.09 36.2959C257.716 36.4063 257.369 36.6547 257.048 37.041C256.754 37.4274 256.487 37.9655 256.247 38.6554C256.033 39.3453 255.806 40.2422 255.566 41.346L251.52 60.0148H251.68L265.26 42.0083L265.42 41.3046C265.74 39.8696 265.901 38.8072 265.901 38.1173C265.901 37.317 265.674 36.7789 265.22 36.5029C264.766 36.2269 263.884 36.089 262.576 36.089L262.976 34.4332H274.433L274.032 36.089C273.258 36.089 272.617 36.158 272.109 36.2959C271.602 36.4063 271.175 36.6547 270.828 37.041C270.48 37.3998 270.187 37.9241 269.946 38.614C269.733 39.3039 269.506 40.2146 269.265 41.346L265.22 60.0148H265.38L277.717 43.7055Z" fill="#4F7960"/>
</svg>
