{
	"asset":{
		"generator":"Khronos glTF Blender I/O v4.0.44",
		"version":"2.0"
	},
	"scene":0,
	"scenes":[
		{
			"name":"Scene",
			"nodes":[
				0
			]
		}
	],
	"nodes":[
		{
			"mesh":0,
			"name":"TablewareStoneCoffeeTumbler001_VAR3.001",
			"rotation":[
				0.70710688829422,
				0,
				0,
				0.7071066498756409
			],
			"translation":[
				3.690572500228882,
				0.6725103855133057,
				-0.08403071761131287
			]
		}
	],
	"materials":[
		{
			"doubleSided":true,
			"name":"TablewareStoneCoffeeTumblers001_2K_VAR3",
			"pbrMetallicRoughness":{}
		}
	],
	"meshes":[
		{
			"name":"TablewareStoneCoffeeTumbler001_VAR1",
			"primitives":[
				{
					"attributes":{
						"POSITION":0,
						"NORMAL":1,
						"TEXCOORD_0":2
					},
					"indices":3,
					"material":0
				}
			]
		}
	],
	"accessors":[
		{
			"bufferView":0,
			"componentType":5126,
			"count":19328,
			"max":[
				0.04636848717927933,
				0.046150945127010345,
				0.0004617798258550465
			],
			"min":[
				-0.04662686213850975,
				-0.04672917723655701,
				-0.06953822076320648
			],
			"type":"VEC3"
		},
		{
			"bufferView":1,
			"componentType":5126,
			"count":19328,
			"type":"VEC3"
		},
		{
			"bufferView":2,
			"componentType":5126,
			"count":19328,
			"type":"VEC2"
		},
		{
			"bufferView":3,
			"componentType":5123,
			"count":110688,
			"type":"SCALAR"
		}
	],
	"bufferViews":[
		{
			"buffer":0,
			"byteLength":231936,
			"byteOffset":0,
			"target":34962
		},
		{
			"buffer":0,
			"byteLength":231936,
			"byteOffset":231936,
			"target":34962
		},
		{
			"buffer":0,
			"byteLength":154624,
			"byteOffset":463872,
			"target":34962
		},
		{
			"buffer":0,
			"byteLength":221376,
			"byteOffset":618496,
			"target":34963
		}
	],
	"buffers":[
		{
			"byteLength":839872,
			"uri":"cup.bin"
		}
	]
}
